<?xml version="1.0" standalone="no"?>
<!DOCTYPE svg PUBLIC "-//W3C//DTD SVG 20010904//EN"
 "http://www.w3.org/TR/2001/REC-SVG-20010904/DTD/svg10.dtd">
<svg version="1.0" xmlns="http://www.w3.org/2000/svg"
 width="300.000000pt" height="300.000000pt" viewBox="0 0 300.000000 300.000000"
 preserveAspectRatio="xMidYMid meet">
<metadata>
Created by potrace 1.11, written by Peter Selinger 2001-2013
</metadata>
<g transform="translate(0.000000,300.000000) scale(0.100000,-0.100000)"
fill="#000000" stroke="none">
<path d="M1280 2416 c-55 -11 -120 -48 -120 -67 0 -6 11 -29 24 -52 40 -69 38
-87 -11 -106 -22 -9 -50 -25 -62 -35 -20 -19 -29 -46 -13 -46 4 0 7 -15 6 -32
-1 -18 2 -42 6 -52 5 -14 -7 -33 -48 -75 -47 -49 -130 -172 -136 -205 -2 -6
-9 -24 -15 -41 -73 -175 -71 -465 4 -616 40 -79 99 -143 159 -175 51 -26 56
-32 58 -64 1 -19 3 -48 4 -65 3 -52 6 -160 4 -167 -6 -22 -5 -34 3 -46 7 -8 4
-12 -8 -12 -9 0 -30 -9 -46 -21 -16 -11 -29 -18 -29 -14 0 8 -94 -47 -98 -57
-2 -4 -10 -8 -17 -8 -23 0 -205 -187 -205 -211 0 -4 -24 -10 -54 -13 -30 -4
-60 -14 -67 -22 -6 -8 -17 -14 -23 -14 -32 0 -118 -104 -134 -162 l-10 -38
1164 0 1164 0 0 35 c0 86 -98 195 -209 233 -19 7 -61 40 -95 74 -72 74 -122
118 -134 118 -5 0 -17 9 -27 20 -9 10 -40 31 -68 46 -106 55 -126 65 -146 70
-9 2 -50 13 -91 24 -73 20 -105 24 -245 36 -38 4 -71 7 -72 8 -5 4 -14 69 -18
133 -5 87 1 97 100 149 39 20 72 39 75 43 3 3 21 18 41 33 99 74 161 157 178
239 6 29 14 65 17 79 13 55 11 298 -2 375 -16 97 -34 167 -45 180 -5 5 -9 15
-9 23 0 8 -13 34 -30 59 -16 24 -30 46 -30 49 0 9 -54 56 -90 78 -19 13 -57
28 -85 36 -27 7 -54 15 -59 18 -5 3 -27 7 -50 9 -28 2 -49 12 -69 33 -25 26
-37 30 -82 30 l-52 0 2 53 c2 61 -16 112 -45 127 -30 16 -97 19 -160 6z"/>
</g>
</svg>
